<svg xmlns="http://www.w3.org/2000/svg" viewBox="0 0 117 42" width="117px" height="42px"><title>Tasmanian Government</title><defs><style>.cls-1{fill:#231f20;}.cls-2{fill:#c0ae2c;}.cls-3{fill:#005295;}</style></defs><path class="cls-1" d="M23.377,32.478a9.434,9.434,0,0,0,5.025.5c-1.266.637-.759,1.629-2.79,1.389-1.895-.224-1.3-.9-2.235-1.894"/><path class="cls-2" d="M8.844,12.765s-.183-1.28-3.42-5.331c4.7,1.674,5.8,2.406,8.613,4.8a30.117,30.117,0,0,0-5.193.535"/><path class="cls-2" d="M37.842,12.874a24.308,24.308,0,0,1,5.107-9.483,15.274,15.274,0,0,0-8.057,8.872,23.762,23.762,0,0,0,2.95.611"/><path class="cls-1" d="M23.046,20.83c.142.087.346.151.395.337l-.023.035a9.092,9.092,0,0,1,.36,3.174c-.024.02-.072.036-.092.011a13.5,13.5,0,0,0-4.546-3.93c-.037-.017.052-.086.092-.092l.7-.127a7.218,7.218,0,0,1,3.116.592"/><path class="cls-1" d="M28.228,20.83c-.143.087-.346.151-.4.337l.022.035a9.115,9.115,0,0,0-.359,3.174c.022.02.072.036.092.011a13.5,13.5,0,0,1,4.545-3.93c.037-.017-.051-.086-.091-.092l-.7-.127a7.213,7.213,0,0,0-3.115.592"/><path class="cls-2" d="M15.552,17.033S20.7,25.362,21.5,31.743C11.282,30.185,5.954,31.629.994,36.975a25.772,25.772,0,0,1,.111-11.292A37.669,37.669,0,0,1,6.18,29.6S3.62,24.133,1.227,21.54a18.1,18.1,0,0,1,2.8-5.242,18.379,18.379,0,0,1,7.557,7.679A55.082,55.082,0,0,0,9.353,13.971a26.375,26.375,0,0,0,6.2,3.062"/><path class="cls-3" d="M1.335,38.381a12.6,12.6,0,0,1,8.442-4.222c9.721-.94,21.6,10.527,32.654-3.847-.6,6.979-7.529,14.178-19.448,10.851-6.394-1.785-8.966-4.619-13.932-4.647a15.5,15.5,0,0,0-7.716,1.865"/><path class="cls-2" d="M37.389,15.075a16.781,16.781,0,0,0-3.519,2.143,55.306,55.306,0,0,0-2.156,7.149c-1.1,4.387-1.857,8.413-1.857,8.413s7.872-.356,11.39-3.873c-1.588-2.61.114-8.17,1.816-10.328-3.4,1.249-6.241,6.016-6.241,6.016s-1.249-5.661.567-9.52"/><path class="cls-1" d="M17.48,10.253a10.946,10.946,0,0,1,7.379-2.991c5.191-.213,6.381,1,6.381,1s-1.927-3.922-3.856-4.188A8.923,8.923,0,0,0,21.734,5.4a8.744,8.744,0,0,0-4.254,4.853"/><path class="cls-1" d="M17.5.016a19.247,19.247,0,0,1,6.3.8c-4.721.931-8.493,5-9.889,8.908-.066-3.174-.732-7.048,3.59-9.706"/><polyline class="cls-1" points="54.211 19.527 51.163 19.527 51.163 27.05 50.028 27.05 50.028 19.527 46.981 19.527 46.981 18.519 54.211 18.519 54.211 19.527"/><path class="cls-1" d="M57.823,25.474V23.693q-.492.028-1.16.086a5.936,5.936,0,0,0-1.056.166,1.738,1.738,0,0,0-.751.409,1.184,1.184,0,0,0,.045,1.593,1.561,1.561,0,0,0,1.014.278,2.4,2.4,0,0,0,1.037-.22,4.7,4.7,0,0,0,.871-.531M58.9,27.05H57.823v-.681c-.095.064-.223.155-.387.271a2.714,2.714,0,0,1-.471.278,3.286,3.286,0,0,1-.619.22,3.365,3.365,0,0,1-.819.089,2.048,2.048,0,0,1-1.468-.572,1.93,1.93,0,0,1-.6-1.461,2.024,2.024,0,0,1,.312-1.177,2.076,2.076,0,0,1,.891-.708,4.79,4.79,0,0,1,1.4-.35q.819-.093,1.758-.138v-.166a1.281,1.281,0,0,0-.128-.607.939.939,0,0,0-.37-.377,1.5,1.5,0,0,0-.549-.178,4.55,4.55,0,0,0-.671-.047,4.447,4.447,0,0,0-.945.113,7.328,7.328,0,0,0-1.078.322h-.057V20.788q.315-.085.911-.19a6.954,6.954,0,0,1,1.175-.1,5.5,5.5,0,0,1,1.177.111,2.293,2.293,0,0,1,.868.381,1.689,1.689,0,0,1,.549.683,2.491,2.491,0,0,1,.19,1.036Z"/><path class="cls-1" d="M65.333,25.2a1.739,1.739,0,0,1-.724,1.438,3.152,3.152,0,0,1-1.979.563,4.771,4.771,0,0,1-1.3-.169,5.889,5.889,0,0,1-.994-.37v-1.21h.058a4.24,4.24,0,0,0,1.134.611,3.5,3.5,0,0,0,1.2.226,2.246,2.246,0,0,0,1.111-.229.771.771,0,0,0,.4-.722.73.73,0,0,0-.218-.573,1.971,1.971,0,0,0-.837-.332c-.152-.035-.351-.074-.6-.12s-.471-.1-.673-.149a2.24,2.24,0,0,1-1.2-.656,1.628,1.628,0,0,1-.353-1.063,1.715,1.715,0,0,1,.165-.744,1.781,1.781,0,0,1,.5-.626,2.383,2.383,0,0,1,.816-.426,3.65,3.65,0,0,1,1.109-.157,4.941,4.941,0,0,1,1.159.14,4.3,4.3,0,0,1,.977.34v1.152h-.058a3.854,3.854,0,0,0-1-.513,3.451,3.451,0,0,0-1.156-.208,2.033,2.033,0,0,0-1,.225.8.8,0,0,0-.161,1.27,1.937,1.937,0,0,0,.779.326c.2.047.421.091.668.138s.451.087.615.126a2.264,2.264,0,0,1,1.157.591,1.545,1.545,0,0,1,.407,1.121"/><path class="cls-1" d="M76.014,27.05H74.937V23.406c0-.275-.012-.541-.037-.8A1.69,1.69,0,0,0,74.743,22a.862.862,0,0,0-.379-.372,1.589,1.589,0,0,0-.71-.127,2.012,2.012,0,0,0-.905.228,5.478,5.478,0,0,0-.905.575c.012.087.02.19.029.306s.011.232.011.347v4.1H70.807V23.406c0-.282-.013-.551-.036-.8a1.686,1.686,0,0,0-.158-.609.852.852,0,0,0-.379-.37,1.632,1.632,0,0,0-.71-.124,2,2,0,0,0-.885.218,5.2,5.2,0,0,0-.885.556V27.05H66.676v-6.4h1.078v.71a4.782,4.782,0,0,1,1-.654,2.5,2.5,0,0,1,1.07-.234,2.1,2.1,0,0,1,1.108.275,1.7,1.7,0,0,1,.679.762,5.354,5.354,0,0,1,1.191-.794,2.784,2.784,0,0,1,1.152-.243,1.858,1.858,0,0,1,1.556.638,2.828,2.828,0,0,1,.5,1.786V27.05"/><path class="cls-1" d="M81.673,25.474V23.693q-.492.028-1.16.086a5.934,5.934,0,0,0-1.057.166,1.74,1.74,0,0,0-.75.409,1.184,1.184,0,0,0,.045,1.593,1.559,1.559,0,0,0,1.014.278,2.407,2.407,0,0,0,1.037-.22,4.7,4.7,0,0,0,.871-.531m1.071,1.576H81.673v-.681c-.095.064-.224.155-.387.271a2.72,2.72,0,0,1-.472.278,3.236,3.236,0,0,1-.619.22,3.357,3.357,0,0,1-.818.089,2.048,2.048,0,0,1-1.468-.572,1.927,1.927,0,0,1-.6-1.461,2.017,2.017,0,0,1,.313-1.177,2.076,2.076,0,0,1,.891-.708,4.79,4.79,0,0,1,1.4-.35q.819-.093,1.758-.138v-.166a1.293,1.293,0,0,0-.128-.607.945.945,0,0,0-.37-.377,1.5,1.5,0,0,0-.55-.178,4.537,4.537,0,0,0-.67-.047,4.447,4.447,0,0,0-.945.113,7.293,7.293,0,0,0-1.078.322h-.057V20.788c.21-.057.513-.12.911-.19a6.942,6.942,0,0,1,1.174-.1,5.493,5.493,0,0,1,1.177.111,2.286,2.286,0,0,1,.868.381,1.7,1.7,0,0,1,.551.683,2.525,2.525,0,0,1,.188,1.036Z"/><path class="cls-1" d="M89.848,27.05H88.771V23.406a6.145,6.145,0,0,0-.052-.827,1.488,1.488,0,0,0-.189-.605.873.873,0,0,0-.412-.359,1.774,1.774,0,0,0-.7-.117,2.231,2.231,0,0,0-.922.218,4.66,4.66,0,0,0-.923.556V27.05H84.5v-6.4h1.077v.71a4.4,4.4,0,0,1,1.043-.654,2.746,2.746,0,0,1,1.1-.234A1.984,1.984,0,0,1,89.3,21.1a2.66,2.66,0,0,1,.545,1.8V27.05"/><path class="cls-1" d="M92.661,20.651v6.4H91.584v-6.4Zm.068-2.189V19.58H91.515V18.462Z"/><path class="cls-1" d="M98.352,25.474V23.693c-.328.019-.716.048-1.161.086a5.952,5.952,0,0,0-1.056.166,1.74,1.74,0,0,0-.75.409,1.181,1.181,0,0,0,.045,1.593,1.558,1.558,0,0,0,1.014.278,2.407,2.407,0,0,0,1.037-.22,4.735,4.735,0,0,0,.871-.531m1.071,1.576H98.352v-.681c-.1.064-.224.155-.386.271a2.764,2.764,0,0,1-.473.278,3.236,3.236,0,0,1-.619.22,3.362,3.362,0,0,1-.818.089,2.048,2.048,0,0,1-1.468-.572,1.93,1.93,0,0,1-.6-1.461,2.017,2.017,0,0,1,.312-1.177,2.07,2.07,0,0,1,.891-.708,4.79,4.79,0,0,1,1.4-.35q.817-.093,1.758-.138v-.166a1.281,1.281,0,0,0-.129-.607.93.93,0,0,0-.369-.377,1.516,1.516,0,0,0-.55-.178,4.546,4.546,0,0,0-.67-.047,4.44,4.44,0,0,0-.945.113,7.328,7.328,0,0,0-1.078.322h-.058V20.788c.211-.057.514-.12.912-.19a6.942,6.942,0,0,1,1.174-.1,5.493,5.493,0,0,1,1.177.111,2.3,2.3,0,0,1,.869.381,1.7,1.7,0,0,1,.55.683,2.525,2.525,0,0,1,.188,1.036Z"/><path class="cls-1" d="M106.527,27.05H105.45V23.406a6.32,6.32,0,0,0-.051-.827,1.519,1.519,0,0,0-.189-.605.88.88,0,0,0-.413-.359,1.769,1.769,0,0,0-.7-.117,2.239,2.239,0,0,0-.923.218,4.6,4.6,0,0,0-.922.556V27.05h-1.078v-6.4h1.078v.71a4.362,4.362,0,0,1,1.043-.654,2.741,2.741,0,0,1,1.1-.234,1.986,1.986,0,0,1,1.582.624,2.665,2.665,0,0,1,.544,1.8V27.05"/><path class="cls-1" d="M54.432,38.382a10.986,10.986,0,0,1-1.527.56,5.9,5.9,0,0,1-3.428-.037,3.772,3.772,0,0,1-1.416-.826,3.721,3.721,0,0,1-.91-1.39,5.389,5.389,0,0,1-.321-1.95,4.342,4.342,0,0,1,1.194-3.229,4.457,4.457,0,0,1,3.28-1.182,6.587,6.587,0,0,1,1.487.174,8.081,8.081,0,0,1,1.635.593v1.347h-.1c-.117-.091-.289-.213-.515-.361a4.885,4.885,0,0,0-.665-.373,4.828,4.828,0,0,0-.9-.295,5.034,5.034,0,0,0-1.138-.117,2.908,2.908,0,0,0-2.266.92,3.566,3.566,0,0,0-.833,2.489,3.6,3.6,0,0,0,.871,2.574,3.107,3.107,0,0,0,2.372.921,5.679,5.679,0,0,0,1.1-.11,5.1,5.1,0,0,0,.959-.28V35.718H51.024v-1h3.408v3.66"/><path class="cls-1" d="M60.538,35.817a2.921,2.921,0,0,0-.487-1.849,1.825,1.825,0,0,0-2.713,0,2.928,2.928,0,0,0-.484,1.849,2.912,2.912,0,0,0,.487,1.824,1.791,1.791,0,0,0,2.707.006,2.9,2.9,0,0,0,.49-1.83m1.111,0a3.591,3.591,0,0,1-.8,2.469,3.012,3.012,0,0,1-4.3,0,3.6,3.6,0,0,1-.8-2.469,3.609,3.609,0,0,1,.8-2.473,3.005,3.005,0,0,1,4.305,0A3.6,3.6,0,0,1,61.649,35.817Z"/><polyline class="cls-1" points="68.385 32.613 65.796 39.012 64.713 39.012 62.141 32.613 63.31 32.613 65.291 37.706 67.257 32.613 68.385 32.613"/><path class="cls-1" d="M73.628,35.1a1.91,1.91,0,0,0-.427-1.312,1.644,1.644,0,0,0-1.28-.463,1.87,1.87,0,0,0-1.378.509,1.978,1.978,0,0,0-.582,1.266h3.667m1.048.826H69.961a2.711,2.711,0,0,0,.178,1.028,1.886,1.886,0,0,0,1.194,1.131,2.816,2.816,0,0,0,.9.138,3.537,3.537,0,0,0,1.315-.261,3.227,3.227,0,0,0,.943-.512h.057v1.174a8.684,8.684,0,0,1-1.111.384,4.518,4.518,0,0,1-1.192.154A3.433,3.433,0,0,1,69.76,38.3a3.247,3.247,0,0,1-.894-2.448,3.515,3.515,0,0,1,.857-2.492,2.928,2.928,0,0,1,2.255-.923,2.588,2.588,0,0,1,2,.757,3.042,3.042,0,0,1,.7,2.147Z"/><path class="cls-1" d="M80.125,33.788h-.057a4,4,0,0,0-.467-.083,4.874,4.874,0,0,0-.536-.025,2.215,2.215,0,0,0-.962.22,4.513,4.513,0,0,0-.894.569v4.544H76.132v-6.4h1.077v.947a5.315,5.315,0,0,1,1.132-.732,2.469,2.469,0,0,1,1-.215c.187,0,.323.006.406.015s.211.028.378.055v1.1"/><path class="cls-1" d="M86.433,39.012H85.355V35.369a6.347,6.347,0,0,0-.051-.828,1.5,1.5,0,0,0-.189-.6.876.876,0,0,0-.413-.359,1.762,1.762,0,0,0-.7-.117,2.239,2.239,0,0,0-.923.218,4.857,4.857,0,0,0-.922.555v4.778H81.082v-6.4h1.077v.711a4.314,4.314,0,0,1,1.043-.653,2.727,2.727,0,0,1,1.105-.235,1.979,1.979,0,0,1,1.581.624,2.66,2.66,0,0,1,.545,1.8v4.152"/><path class="cls-1" d="M97.521,39.012H96.444V35.369q0-.412-.037-.8a1.689,1.689,0,0,0-.158-.613.863.863,0,0,0-.377-.372,1.583,1.583,0,0,0-.711-.127,2.011,2.011,0,0,0-.906.227,5.531,5.531,0,0,0-.9.575c.01.088.019.19.027.307s.011.232.011.347v4.095H92.315V35.369c0-.283-.014-.551-.038-.8a1.7,1.7,0,0,0-.158-.61.85.85,0,0,0-.379-.369,1.611,1.611,0,0,0-.71-.124,2,2,0,0,0-.885.218,5.426,5.426,0,0,0-.885.555v4.778H88.183v-6.4H89.26v.711a4.678,4.678,0,0,1,1-.653,2.484,2.484,0,0,1,1.069-.235,2.1,2.1,0,0,1,1.109.275,1.687,1.687,0,0,1,.677.762,5.384,5.384,0,0,1,1.193-.794,2.774,2.774,0,0,1,1.151-.243,1.854,1.854,0,0,1,1.556.639,2.818,2.818,0,0,1,.5,1.785v4.152"/><path class="cls-1" d="M103.651,35.1a1.91,1.91,0,0,0-.427-1.312,1.645,1.645,0,0,0-1.281-.463,1.87,1.87,0,0,0-1.377.509,1.968,1.968,0,0,0-.582,1.266h3.667m1.048.826H99.984a2.731,2.731,0,0,0,.177,1.028,1.891,1.891,0,0,0,1.195,1.131,2.807,2.807,0,0,0,.9.138,3.541,3.541,0,0,0,1.315-.261,3.249,3.249,0,0,0,.944-.512h.056v1.174a8.684,8.684,0,0,1-1.111.384,4.529,4.529,0,0,1-1.192.154,3.433,3.433,0,0,1-2.487-.862,3.243,3.243,0,0,1-.894-2.448,3.515,3.515,0,0,1,.857-2.492A2.928,2.928,0,0,1,102,32.436a2.591,2.591,0,0,1,2,.757,3.042,3.042,0,0,1,.7,2.147Z"/><path class="cls-1" d="M111.506,39.012h-1.077V35.369a6.347,6.347,0,0,0-.051-.828,1.5,1.5,0,0,0-.189-.6.876.876,0,0,0-.413-.359,1.764,1.764,0,0,0-.7-.117,2.238,2.238,0,0,0-.922.218,4.765,4.765,0,0,0-.922.555v4.778h-1.077v-6.4h1.077v.711a4.347,4.347,0,0,1,1.042-.653,2.736,2.736,0,0,1,1.107-.235,1.981,1.981,0,0,1,1.58.624,2.665,2.665,0,0,1,.544,1.8v4.152"/><path class="cls-1" d="M116.57,38.956a5.876,5.876,0,0,1-.662.131,4.567,4.567,0,0,1-.639.051,1.98,1.98,0,0,1-1.49-.527,2.367,2.367,0,0,1-.509-1.69v-3.4h-.728v-.906h.728V30.774h1.077v1.839h2.223v.906h-2.223v2.916c0,.335.007.6.024.787a1.281,1.281,0,0,0,.159.531.771.771,0,0,0,.347.334,1.626,1.626,0,0,0,.673.106,2.088,2.088,0,0,0,.55-.077,4.245,4.245,0,0,0,.413-.128h.057v.968"/></svg>