<svg xmlns="http://www.w3.org/2000/svg" viewBox="0 0 145 42" width="145px" height="42px"><title>University of Tasmania</title><defs><style>.cls-1{fill:#e5332a;}.cls-2{fill:#fff;}.cls-3{fill:#1d1d1b;}</style></defs><path class="cls-1" d="M33.045,19.374a1.46,1.46,0,0,0,.508-1.837A4.78,4.78,0,0,0,31.9,16.321c-2.07-.774-6.6.158-9.845-.032-1.749-.22-2.435,0-3.828-1.221a2.754,2.754,0,0,1-.349-3.317A2.982,2.982,0,0,1,20.579,10.6c2.619.2,3.329-1.221,5.578-1.656,3.311-.64,3.856.825,3.388.438a5.075,5.075,0,0,0-3.275.391,7.847,7.847,0,0,0-1.827.884,11.609,11.609,0,0,0,2.565.639c2.954.238,3.673-1.062,5.175-.714a6.336,6.336,0,0,0-.82.326,3.537,3.537,0,0,1,2.455.516,1.8,1.8,0,0,1,.255.37c-4.629-1.123-4.156.873-6.6,1.052-1.492.109-3.676-1.182-4.255-1.046,0,0-.149,2.059-1.7,1.588a.868.868,0,0,0-.4-1.551,3.209,3.209,0,0,0-1.621.091,1.537,1.537,0,0,0-.666,2.255c.766,1.109,1.585,1.28,3.635,1.265,0,0,1.231-.852,1.734-.612,0,.124-.226.558-.115.5a3.409,3.409,0,0,1,2.439-.666c-.1.335-.182.448-.233.485a5.919,5.919,0,0,1,2.806-.531l-.2.544c.866-.389,1.727-1.028,2.729-.714l-.191.627a4.72,4.72,0,0,1,2.622.265l-.3.69a2.563,2.563,0,0,1,.785,2.1,1.852,1.852,0,0,1-1.571,1.9,10.291,10.291,0,0,1-5.021.028c-.173-.035-.3-.535-.3-.535,1.875.341,3.661.62,5.392-.158"/><path class="cls-1" d="M32.384,28.9c.626.114.883.607,1.142,1.1.13.372.06,1.037-.438,1.129-.44.082-.55-.613-.671-.362a8.092,8.092,0,0,0-.233.876,1.086,1.086,0,0,1-1.114.519c-.376-.242-.263-.868-.146-1.243-.747.013-.477,1.131-1.231.769-.128-.123-.381-.367-.261-.618.361-.755,1.547-.9,1.966-1.489.568-.8-.554-3.189-1.2-4.548a8.865,8.865,0,0,1-4.356.244c-2.871-.551-4.51-1.561-5.164-3.335-.47-1.273-2.138-.772-2.138-.772a1.733,1.733,0,0,1,1.642,1.217c.032.12,0,.249-.121.251a2.451,2.451,0,0,1-2.211-.543,4.841,4.841,0,0,1-5.1,3.041c-.247-.034-1.023.932-.732.885a1.481,1.481,0,0,1,1.374.225.98.98,0,0,1,.142.994,1.168,1.168,0,0,1-2.249-.334l-.375.007c.013.747.244,1.989-.753,2.008-.5.008-.349-.991-.849-1.107.01.623-.221,1.665-.969,1.554-.25,0-.385-.533-.39-.906l-.25,0a1.7,1.7,0,0,1-.474,1.378c-.5.259-.63-.362-1.008-.605-.484.756-1.164,2.223-1.919,1.9-.834-.354.06-1.372.424-1.877a.435.435,0,0,0-.13-.247c-.492.258-.745.83-1.235.563-.88-.483-.607-1.486.378-2.167-.253-.245-.424-.409-.3-.66a.774.774,0,0,1,.869-.265A2.1,2.1,0,0,1,5.416,28.3c2.36-.415,4.488-2.156,6.205-3.765,0,0,1.334.226,1.717-1.526,0,0,1.576-.2,1.58-2.272a1.4,1.4,0,0,0,1.011-1.472,1.14,1.14,0,0,1,.037-.29,34.97,34.97,0,0,0,6.885-.579,4.7,4.7,0,0,1,4.021,1.526c.593.7.659,1.79,1.362,2.241a5.341,5.341,0,0,0,4.24.049s.354,1.239-1.225,1.267c-.249.005-.012.348.3.411,1.127.229,1.807,1.172-.233.918,0,0-.306.355.175.5,1.753.509.847.981.476.989-.325.462,1.207.268,1.725,1.34.4.817-1.81,1.029-1.306,1.269"/><path class="cls-1" d="M25.64,27.751a1.561,1.561,0,0,1-2.013,1.594,12.342,12.342,0,0,1,.192,1.366c.007.416.017.957-.913.058-.127-.122-.306.138-.2.336.257.494.349,2.052-.6,1.132-.128-.122-.309-.074-.247.172.447,1.777-.3,2.349-.683,1.257-.088-.247-.17-.2-.334-.077s-1.722,1.193-1.722,1.193c.181.911-.676,1.8-1.262,1.622-.784-.235-1.121-.515-.568-1.671.12-.253-.215-.455-.334-.119-.238.669-1.169,1.417-2.157.246-.551-.655.726-1.219.726-1.219.29-.088.369-.337,0-.331s-1.33-.018-1.213-.477c.146-.577.82-.555,1.319-.563a4.138,4.138,0,0,1,2.931,1.318,8.069,8.069,0,0,0,1.477-1.107c.447-.505,1.105-.891,1.145-3.259.021-1.122-.988-2.039-1.588-2.921a3.022,3.022,0,0,1-.546-2.96,4.1,4.1,0,0,1,1.41-.15,7.773,7.773,0,0,0,2.777,2.027s-.7,2.629,2.413,2.533"/><path class="cls-1" d="M2.062,10.247c.071-.666.18-.647,1.048-.954a2.475,2.475,0,0,1,1.933.091,3.157,3.157,0,0,0,1.867-.1,1.746,1.746,0,0,1,1.058-.08,3.292,3.292,0,0,0,1.121-.021,1.034,1.034,0,0,1-.737.325c-.46-.07-.723.49-.884.784s-.354.449-1.03.474c-.934.039-.963.745-1.04,1.038s-.412.446-.992.329A5.353,5.353,0,0,1,2.5,11.444a1.584,1.584,0,0,1-.437-1.2"/><path class="cls-1" d="M8.54,14.825c-.623.011-.791-.152-.919-.316l-.126-.04a5.711,5.711,0,0,0,.625.073l1.329-.024c.375-.006.583.156.628.28l-1.537.027"/><path class="cls-2" d="M1.846,23.792c-.115.542-.239.585-.208-.038.013-.282.168-2.663.332-5.191a.628.628,0,0,0,.4-.222s.118.108.448-.066Z"/><path class="cls-2" d="M2.829,18.219l-.338-.254c.038-.126-.214-.64-.214-.64a.567.567,0,0,0,.368-.3,1.354,1.354,0,0,0,.386.049Z"/><path class="cls-2" d="M3.073,16.835l-.312-.266a4.1,4.1,0,0,0-.434-.989.682.682,0,0,1,.411-.3,1.833,1.833,0,0,0,.377.063,1.21,1.21,0,0,0,0,.345,2.48,2.48,0,0,0,.1.351Z"/><path class="cls-2" d="M3.554,14.106a.784.784,0,0,0-.553-.1,2.523,2.523,0,0,1,.39.6,2.008,2.008,0,0,0-.195.407,3.979,3.979,0,0,0-.267-.337,1.293,1.293,0,0,0-.261-.7,1.255,1.255,0,0,0-.379-.291c.059-.9.1-1.49.1-1.49a4.718,4.718,0,0,0,1.42.473Z"/><path class="cls-1" d="M8.54,14.825c-.623.011-.791-.152-.919-.316l-.126-.04a5.711,5.711,0,0,0,.625.073l1.329-.024c.375-.006.583.156.628.28l-1.537.027"/><path class="cls-2" d="M1.846,23.792c-.115.542-.239.585-.208-.038.013-.282.168-2.663.332-5.191a.628.628,0,0,0,.4-.222s.118.108.448-.066Z"/><path class="cls-2" d="M2.829,18.219l-.338-.254c.038-.126-.214-.64-.214-.64a.567.567,0,0,0,.368-.3,1.354,1.354,0,0,0,.386.049Z"/><path class="cls-2" d="M3.073,16.835l-.312-.266a4.1,4.1,0,0,0-.434-.989.682.682,0,0,1,.411-.3,1.833,1.833,0,0,0,.377.063,1.21,1.21,0,0,0,0,.345,2.48,2.48,0,0,0,.1.351Z"/><path class="cls-2" d="M3.554,14.106a.784.784,0,0,0-.553-.1,2.523,2.523,0,0,1,.39.6,2.008,2.008,0,0,0-.195.407,3.979,3.979,0,0,0-.267-.337,1.293,1.293,0,0,0-.261-.7,1.255,1.255,0,0,0-.379-.291c.059-.9.1-1.49.1-1.49a4.718,4.718,0,0,0,1.42.473Z"/><path class="cls-3" d="M48.959,11.243c-.809.042-1.149.3-1.219.837a14.942,14.942,0,0,0-.1,2.084v1.4a5,5,0,0,1-1.05,3.616A3.581,3.581,0,0,1,44,20.2a3.939,3.939,0,0,1-2.424-.709c-.809-.638-1.206-1.687-1.206-3.346V12.732c0-1.318-.127-1.39-1.205-1.489v-.467h4.056v.467c-1.064.085-1.192.171-1.192,1.489v3.134c0,2.184.809,3.446,2.425,3.446,1.816,0,2.524-1.433,2.524-3.8V14.164a14.554,14.554,0,0,0-.127-2.112c-.085-.511-.4-.752-1.376-.809v-.467h3.489Z"/><path class="cls-3" d="M60.543,11.229c-.765.042-1.078.241-1.149.879a18.039,18.039,0,0,0-.113,2.368v5.658h-.6l-5.955-7.2H52.7v3.333a21.645,21.645,0,0,0,.1,2.326c.072.666.34.893,1.362.95v.454H50.73v-.454c.794-.057,1.134-.269,1.206-.907a22.155,22.155,0,0,0,.112-2.369v-3.02c0-.965-.013-1.163-.283-1.49a1.483,1.483,0,0,0-1.22-.524v-.454h2.439l5.6,6.538h.042V14.476c0-1.276-.071-1.943-.1-2.353-.085-.611-.382-.837-1.4-.894v-.454h3.418Z"/><path class="cls-3" d="M77.414,11.243c-.936.114-1.177.269-1.73,1.588-.439,1.036-1.8,4.382-2.892,7.317h-.611c-.964-2.595-2.241-5.885-2.907-7.572-.425-1.078-.653-1.248-1.517-1.333v-.467h3.956v.467c-1.034.142-1.049.283-.822.894.4,1.091,1.475,3.913,2.155,5.643h.029c.765-1.957,1.531-4,1.943-5.3.312-.923.269-1.092-.88-1.234v-.467h3.276Z"/><path class="cls-3" d="M86.033,17.681c-.085.567-.368,1.887-.5,2.312H78.446v-.454c1.234-.1,1.362-.2,1.362-1.39V12.633c0-1.248-.128-1.3-1.163-1.389v-.469h6.538c.013.283.085,1.276.142,2.1l-.482.071a2.971,2.971,0,0,0-.526-1.22c-.226-.269-.609-.369-1.489-.369h-.823c-.495,0-.537.029-.537.482v3.077h1.091c1.219,0,1.361-.085,1.546-1.063h.482V16.66h-.482c-.185-1.021-.327-1.078-1.546-1.078H81.468v2.524c0,.681.07,1.008.34,1.163a3.284,3.284,0,0,0,1.332.156c.866,0,1.333-.1,1.66-.468a4.71,4.71,0,0,0,.765-1.361Z"/><path class="cls-3" d="M96.425,20.12c-.113,0-.283-.014-.439-.014a2.781,2.781,0,0,1-2.694-1.347c-.411-.624-.851-1.433-1.262-2.156a.994.994,0,0,0-1.036-.6h-.327v2.141c0,1.164.129,1.291,1.221,1.391v.454H87.8v-.454c1.093-.1,1.248-.213,1.248-1.391V12.605c0-1.163-.127-1.277-1.191-1.362v-.468h3.815a4.277,4.277,0,0,1,2.439.511,2.162,2.162,0,0,1,.95,1.885,2.5,2.5,0,0,1-1.786,2.34c.227.44.765,1.39,1.191,2.028a9.631,9.631,0,0,0,1.12,1.518,1.922,1.922,0,0,0,.921.638Zm-5.289-4.637a2.208,2.208,0,0,0,1.447-.383,2.079,2.079,0,0,0,.709-1.716c0-1.517-.909-2.085-1.816-2.085a1.223,1.223,0,0,0-.68.143c-.1.085-.129.241-.129.567v3.474Z"/><path class="cls-3" d="M103.016,13.03c-.283-.894-.765-1.914-1.943-1.914a1.392,1.392,0,0,0-1.446,1.447c0,.879.581,1.346,1.787,1.942,1.347.681,2.481,1.418,2.481,2.893,0,1.574-1.333,2.807-3.346,2.807a4.515,4.515,0,0,1-1.4-.212,5.109,5.109,0,0,1-.808-.3,16.945,16.945,0,0,1-.412-2.326l.482-.142c.256.894,1.021,2.426,2.411,2.426a1.449,1.449,0,0,0,1.532-1.575c0-.907-.681-1.432-1.745-1.985-1.262-.652-2.424-1.4-2.424-2.85,0-1.475,1.177-2.681,3.119-2.681a6.367,6.367,0,0,1,1.915.355c.056.525.141,1.12.255,2.014Z"/><path class="cls-3" d="M105.978,19.993v-.454c1.091-.1,1.219-.184,1.219-1.389V12.633c0-1.2-.128-1.3-1.219-1.389v-.469h4.069v.469c-1.091.085-1.2.184-1.2,1.389V18.15c0,1.19.114,1.29,1.2,1.389v.454Z"/><path class="cls-3" d="M119.66,13.115a3.4,3.4,0,0,0-.553-1.389c-.256-.284-.567-.369-1.489-.369h-.766v6.792c0,1.177.128,1.291,1.418,1.39v.454h-4.424v-.454c1.22-.1,1.361-.213,1.361-1.39V11.357h-.639c-1.162,0-1.431.127-1.63.4a3.542,3.542,0,0,0-.539,1.376h-.482c.057-.965.142-1.972.17-2.709h.327c.212.325.4.354.794.354h5.672a.879.879,0,0,0,.78-.354h.326c0,.61.07,1.786.142,2.666Z"/><path class="cls-3" d="M130.293,11.243c-.936.1-1.177.311-1.7,1.163-.568.908-.979,1.588-1.659,2.893a1.618,1.618,0,0,0-.256.95v1.858c0,1.247.114,1.333,1.39,1.432v.453h-4.382v-.453c1.219-.086,1.348-.185,1.348-1.432V16.419a1.488,1.488,0,0,0-.228-.808c-.425-.809-.949-1.744-1.758-3.176-.554-.951-.752-1.093-1.56-1.192v-.467h3.8v.467c-.951.127-.937.3-.681.794.538,1.036,1.149,2.127,1.73,3.177.454-.851,1.19-2.2,1.545-3.064.27-.624.241-.793-.822-.907v-.467h3.233Z"/><path class="cls-3" d="M132.783,18.031a3.941,3.941,0,0,1,1.976-3.529,3.641,3.641,0,0,1,1.619-.461c1.226,0,1.884.8,1.884,2.08a4.21,4.21,0,0,1-1.41,3.187,3.479,3.479,0,0,1-2.172.843c-1.461,0-1.9-1.093-1.9-2.12m2.766,1.488c.58-.237,1.226-1.633,1.226-3.437-.014-1.027-.383-1.488-.884-1.488a1,1,0,0,0-.381.079c-.408.184-1.238,1.29-1.238,3.4,0,1,.408,1.514.909,1.514a1.034,1.034,0,0,0,.368-.066"/><path class="cls-3" d="M140.577,14.251a4.885,4.885,0,0,1,1.172-2.488,3.274,3.274,0,0,1,2.042-1.067c.579,0,.909.355.9.645a.96.96,0,0,1-.434.672.237.237,0,0,1-.343-.027c-.329-.382-.619-.606-.882-.606-.33-.013-.633.33-1.041,2.871H143.5l-.29.487-1.343.106c-.224,1.291-.382,2.33-.724,3.818-.487,2.2-1.054,3.108-1.9,3.872a2.373,2.373,0,0,1-1.462.737c-.407,0-.868-.289-.855-.606a.96.96,0,0,1,.421-.684c.1-.079.185-.093.276-.026a1.659,1.659,0,0,0,.962.42.518.518,0,0,0,.475-.3,11.266,11.266,0,0,0,.683-2.936c.317-1.818.488-3,.712-4.293h-1.067l-.052-.145.434-.448Z"/><path class="cls-3" d="M47.568,26.789a3.392,3.392,0,0,0-.553-1.39c-.255-.283-.567-.368-1.489-.368H44.76v6.792c0,1.177.128,1.291,1.419,1.39v.454H41.754v-.454c1.22-.1,1.361-.213,1.361-1.39V25.031h-.638c-1.162,0-1.432.127-1.631.4a3.535,3.535,0,0,0-.539,1.376h-.482c.057-.965.142-1.972.171-2.709h.326c.213.325.4.354.794.354h5.672a.878.878,0,0,0,.78-.354h.326c0,.61.071,1.787.142,2.666Z"/><path class="cls-3" d="M55.874,33.668v-.454c.852-.129.936-.284.738-.88-.156-.468-.4-1.134-.653-1.815H53.138c-.185.525-.383,1.063-.554,1.63-.241.767-.169.936.865,1.065v.454H50.316v-.454c.922-.129,1.106-.256,1.588-1.475l2.907-7.331.624-.171c.907,2.468,1.8,5.02,2.723,7.459.468,1.248.652,1.4,1.559,1.518v.454Zm-1.276-7.1h-.042c-.412,1.091-.795,2.2-1.192,3.261h2.354Z"/><path class="cls-3" d="M68,26.7c-.283-.894-.766-1.914-1.943-1.914a1.392,1.392,0,0,0-1.446,1.447c0,.879.581,1.346,1.787,1.942,1.347.681,2.481,1.418,2.481,2.893,0,1.574-1.333,2.807-3.347,2.807a4.508,4.508,0,0,1-1.4-.212,5.17,5.17,0,0,1-.809-.3,17.108,17.108,0,0,1-.411-2.325l.482-.143c.256.894,1.021,2.426,2.411,2.426a1.449,1.449,0,0,0,1.532-1.575c0-.908-.682-1.432-1.745-1.985-1.262-.652-2.424-1.4-2.424-2.85,0-1.475,1.177-2.681,3.119-2.681a6.367,6.367,0,0,1,1.915.355c.056.525.141,1.12.254,2.014Z"/><path class="cls-3" d="M80.576,33.667v-.454C81.683,33.1,81.74,33,81.74,31.625L81.7,26.051H81.64l-3.247,7.517h-.37l-2.991-7.36h-.043l-.184,3.829a17.681,17.681,0,0,0-.014,2.311c.042.652.34.766,1.29.852v.467H72.706V33.2c.808-.072,1.078-.3,1.163-.824a25.345,25.345,0,0,0,.3-2.652l.213-2.849c.128-1.7.028-1.843-1.219-1.957V24.45h2.722l2.908,6.523,2.963-6.523h2.694v.468c-1.177.114-1.247.184-1.219,1.475l.142,5.232c.028,1.375.085,1.475,1.248,1.588v.454Z"/><path class="cls-3" d="M93.338,33.668v-.454c.851-.129.935-.284.738-.88-.156-.468-.4-1.134-.653-1.815H90.6c-.185.525-.384,1.063-.554,1.63-.241.767-.171.936.865,1.065v.454H87.779v-.454c.921-.129,1.107-.256,1.589-1.475l2.907-7.331.624-.171c.907,2.468,1.8,5.02,2.722,7.459.467,1.248.653,1.4,1.56,1.518v.454Zm-1.276-7.1H92.02c-.412,1.091-.8,2.2-1.192,3.261h2.354Z"/><path class="cls-3" d="M109.97,24.9c-.765.042-1.078.241-1.148.879a17.791,17.791,0,0,0-.114,2.368v5.658h-.6l-5.955-7.2h-.028v3.333a21.728,21.728,0,0,0,.1,2.326c.072.666.34.893,1.362.95v.454h-3.431v-.454c.794-.057,1.133-.269,1.2-.907a22.047,22.047,0,0,0,.113-2.369v-3.02c0-.965-.014-1.164-.283-1.49a1.483,1.483,0,0,0-1.221-.524v-.454h2.44l5.6,6.538h.042V28.15c0-1.276-.07-1.943-.1-2.353-.085-.611-.382-.837-1.4-.894v-.454h3.417Z"/><path class="cls-3" d="M113.962,33.667v-.454c1.091-.1,1.219-.184,1.219-1.39V26.308c0-1.206-.128-1.3-1.219-1.39V24.45h4.069v.468c-1.091.085-1.205.184-1.205,1.39v5.515c0,1.191.114,1.291,1.205,1.39v.454Z"/><path class="cls-3" d="M126.449,33.668v-.454c.852-.129.936-.284.739-.88-.156-.468-.4-1.134-.653-1.815h-2.822c-.184.525-.383,1.063-.553,1.63-.241.767-.17.936.865,1.065v.454h-3.134v-.454c.922-.129,1.106-.256,1.589-1.475l2.907-7.331.624-.171c.907,2.468,1.8,5.02,2.722,7.459.468,1.248.653,1.4,1.56,1.518v.454Zm-1.275-7.1h-.042c-.412,1.091-.8,2.2-1.192,3.261h2.354Z"/><path class="cls-3" d="M62.129,19.993v-.454c1.092-.1,1.219-.184,1.219-1.389V12.633c0-1.2-.127-1.3-1.219-1.389v-.469H66.2v.469c-1.092.085-1.206.184-1.206,1.389V18.15c0,1.19.114,1.29,1.206,1.389v.454Z"/><path class="cls-1" d="M14.5,15.717c-.127-.081-.089-.289.2-.17a4.692,4.692,0,0,1,1.423.6,1.464,1.464,0,0,0-1.474-1.1c-.248.005-.169-.246,0-.29a2.323,2.323,0,0,1,.875.108s-.215-.411-.34-.451a.519.519,0,0,0-.054-.7,2,2,0,0,1-2.266,1.037c-.25-.036-.632-.486-.218-.577s2.325-.082,1.831-2.109c0,0-.95.308-1.048-.6a.776.776,0,0,0,1.105-.891,1.411,1.411,0,0,0-.809-1.149c-.2.377-.357.962-1.188,1.017a6.012,6.012,0,0,0-2.441.5c-.492.341-.69.927-1.1,1.182a1.565,1.565,0,0,1-1.034.268s.156,1.472,1.112,1.579c.667.075,1.079-.1,1.249.1a2.942,2.942,0,0,1,.557.987c0,.206-.037.249-.328.254s-1.327.065-1.327.065c-.162.253-.369.568-.031.935a2.726,2.726,0,0,1,.991-.391c.374-.007,1.407-.274,1.234,1.681,0,0-.517-1.071-.963-.44s-1.872,2.193-2.032,2.528-.526,1.494-.556,1.465a1.908,1.908,0,0,1-.311-1.158A12.265,12.265,0,0,1,4.7,18.216a1.533,1.533,0,0,1-.308-.99c.036-.292.356-1,.1-1.456a2.645,2.645,0,0,0-.636-.736c-.118.375-.28.545-.149.958s.513.862.274,1.407a1.625,1.625,0,0,0,.247,2.156s-.431,1.5,1.146,1.392c0,0-.591,1.838,1.194,1.723a1.169,1.169,0,0,0,.095.7c.171.248.22.7,1.16-.186a6.622,6.622,0,0,1,.1-1.372,6.291,6.291,0,0,0,.9,1.728c.509.573,1.913,2.19.7-.3a4.15,4.15,0,0,1-.285-2.113c.037-.209.375.159.422.449a5.622,5.622,0,0,0,.656,1.816c.3.327.855,1.127.5-.133a4.491,4.491,0,0,1,.123-2.37c.122-.21.254.245.217.494a5.267,5.267,0,0,0,.449,1.862c.258.494,1.012.895,1.149-.727s-.186-3.109-.558-3.395c-.211-.163-.052-.582.16-.337a3.89,3.89,0,0,1,1.136,3.1s.83.068.635-1.59a5.614,5.614,0,0,0-.961-2.683c-.128-.2-.093-.537.2-.252a4.236,4.236,0,0,1,1.457,2.548s.663-.135.313-1.085a11.521,11.521,0,0,0-.995-2.267c-.168-.121.119-.292.289-.088a4.153,4.153,0,0,1,1.149,1.518s.571-.593.316-.921A4.107,4.107,0,0,0,14.5,15.717m-2.271-3.906c-1.021,1.057-2.065.66-2.194.454l-.015-.872a1.432,1.432,0,0,0,.878.275l.913-.015s.54.032.418.158"/><path class="cls-3" d="M11.807,11.652s-.665.011-.913.017a1.436,1.436,0,0,1-.877-.276l.015.872c.127.205,1.172.6,2.193-.455.123-.126-.418-.158-.418-.158"/><path class="cls-3" d="M33.637,28.937l.368-.3a5.887,5.887,0,0,1,.758.92,1.645,1.645,0,0,0-.274-1.407,1.349,1.349,0,0,0-.474-1.258,2.768,2.768,0,0,0-.966-.605s.276-.941-.226-1.077c0,0,1.107-.768-.279-1.573a1.236,1.236,0,0,0,.521-1.172,3.119,3.119,0,0,0-.269-1.076,4.928,4.928,0,0,1-1.736.529c-.748.013-2.818.3-2.927-1.153,0,0,1.372.143,2.37.125s3.617.143,4.454-1.783a3.481,3.481,0,0,0-.554-3.147l.318-.794a4.515,4.515,0,0,0-2.628-.659l.115-.5a4.687,4.687,0,0,0-2.531.253s-.633-.654-2.615.088c0,0-.717-.736-2.321.165,0,0-.885-.69-2.319.416a4.528,4.528,0,0,1-2.082-.255c-.837-.4-.992-.65-1.056-1.06-.189-1.2.807-1.2,1.14-1.2s.789-.075.753.382c-.021.331-.321.483-.61.613a2.22,2.22,0,0,0,1.464.576c.789-.055,1.325-.211,1.675-1.525a24.758,24.758,0,0,0,2.674.867,3.852,3.852,0,0,0,2.531-.254,5.581,5.581,0,0,1,3.013-1.008,6.355,6.355,0,0,1,2.877.613s.553-1.546-1.867-2.21c0,0-.245-.951-2.541-.411,0,0,.359-2.021-2.816-1.9-2.034.076-2.633.661-3.968,1.15-1.609.59-1.563.879-3.56.727a3.422,3.422,0,0,0-2.917,1.756,3.588,3.588,0,0,0,.436,3.481,4.263,4.263,0,0,0,3.226,1.52,37.422,37.422,0,0,0,6.145-.067,13.853,13.853,0,0,1,4.571.126c.795.319,1.511.8,1.479,1.429-.013.289-.235.793-1.229.893a12.226,12.226,0,0,1-4.993-.492,12.723,12.723,0,0,0-2.968-.944c-1-.065-3.519.478-4.31.491s-3.32.143-3.32.143a1.251,1.251,0,0,0,.224-1.458s.737-.553-.284-1.822a1.5,1.5,0,0,0-.261-.744s.063-1.082-.77-1.232a1.269,1.269,0,0,0-.276-1.45,1.01,1.01,0,0,0,.32-.711c-.013-.788-.068-1.535-1.661-2.338,0,0-.355,1-.693,1.03a11.7,11.7,0,0,0-2.558.607,3.173,3.173,0,0,0-1.148.933,1.205,1.205,0,0,1-.862.639c-.412.091-.58.01-.7.137a.5.5,0,0,0-.157.5A2.171,2.171,0,0,0,8.325,14.1,2.844,2.844,0,0,1,6.953,14a.882.882,0,0,0,.391.948c.546.323.672.445,1.252.394a1.161,1.161,0,0,0-.148,1,3.357,3.357,0,0,0,.471.739c.37-.173.861-.6,1.115-.351a30.509,30.509,0,0,0-2.112,2.695,8.059,8.059,0,0,1-2.56-1.408,1.373,1.373,0,0,1-.271-1.2,1.588,1.588,0,0,0-.063-1.328,1.821,1.821,0,0,0-.833-.983c.195-1.015.323-1.687.323-1.687.456.034,1.206-.208,1.265-.4.336-1.072.6-1.133.6-1.133a1.542,1.542,0,0,0,1.179-.332c.375-.34.608-.8,1.022-.849a1.562,1.562,0,0,0,.906-.431,2.265,2.265,0,0,1,1.767-.8c.293.006.452-.3-.091-.414a4.239,4.239,0,0,0-1.778.114c-.455.134-.661.221-1.037.06a1.727,1.727,0,0,0-1.37.025,3.447,3.447,0,0,1-2.033.16,2.424,2.424,0,0,0-1.829-.133c-.744.263-1.41.483-1.65,1.027a1.228,1.228,0,0,0,.151,1.492l-.091,2.27a.484.484,0,0,0-.277.083c-.327.256-.491.425-.39,1.378,0,0-1.074.393-.221,1.624a1.048,1.048,0,0,0,.106,1.286,1.747,1.747,0,0,0,.582.56L1.1,24.054c.013.831.9,1.854,1.247.1.141-.717.529-2.747.938-4.9a3.69,3.69,0,0,0,.318.449c.015.872.069,1.578,1.151,1.642a2.871,2.871,0,0,0-.069.831.944.944,0,0,0,.553.78c.292.078.753.236.753.236a1.17,1.17,0,0,0,.392.99.92.92,0,0,0,1.039.106c.41-.256.781-.471.781-.471A8.374,8.374,0,0,0,9.728,25.21a10.263,10.263,0,0,1-3.741,2.268,2.294,2.294,0,0,0-.682-1.068c-.508-.407-.433-.948-2.168-.419a2.415,2.415,0,0,0-1.455.254s1,.211,1.135.417a1.95,1.95,0,0,0,.136.661,5.26,5.26,0,0,0-.649.925A1.584,1.584,0,0,0,1.25,29.991a8.228,8.228,0,0,1,.989-.7,1.4,1.4,0,0,0,1.14,1.019s-.026.872.186,1.118a1.65,1.65,0,0,0,.4,1.633,4.261,4.261,0,0,1,.274-1.23.769.769,0,0,0,.789-.013,4.183,4.183,0,0,0,1.3-1.561l.294.16a5.783,5.783,0,0,1-.148,1.354s.213.328.893-1.179a1.689,1.689,0,0,0,.616-.7,1.466,1.466,0,0,0,1.61-.569s1.365.838,1.956-.96c0,0,1.61.688,2.175-.277a2.206,2.206,0,0,0,.166-2.37,5.218,5.218,0,0,0,4.146-2.785l.46.169a3.416,3.416,0,0,0,.048,2.741c.515.9,1.7,2.3,1.878,2.874a3.657,3.657,0,0,1-.488,2.833,4.049,4.049,0,0,1-1.307,1.228,4.4,4.4,0,0,0-1.846-1.006c-.917-.15-2.753-.615-3.14.97a2.084,2.084,0,0,0-.849,1.655,5.882,5.882,0,0,1,1.112-.913s.293.161.419.243a1.817,1.817,0,0,0-.052,1.745,2.451,2.451,0,0,0,.2,2.094,5.115,5.115,0,0,1,.556-1.609,2.362,2.362,0,0,0,1.414.1,2.239,2.239,0,0,0,.6.778s.229,1.387.9,1.625a4.775,4.775,0,0,1-.02-1.349s1.156-.221,1.44-.857a6.348,6.348,0,0,0,.393-1.211l1.068-.684c.086.206.172.454.382.491a3.869,3.869,0,0,1-.442,1.109s.508.261,1.148-1.121c0,0,.667.113.633-1.715,0,0,.836.276.974-1.347,0,0,1.336.394.8-1.882,0,0,1.224.049,1.606-.818a3,3,0,0,0,.258-1.874s-1.33.066-1.71-.261-.67-.444-.524-1.443c0,0,3.636,1.036,5.862.269a13.457,13.457,0,0,1,.954,2.185,4.094,4.094,0,0,1,.145,1.16c-.122.169-.494.259-1.068.684s-1.479,1.251-.755,2.277a1.908,1.908,0,0,0,.656,1.774,8.9,8.9,0,0,1,.146-1.435,3.938,3.938,0,0,0,.5-.093,1.632,1.632,0,0,0,.338.515s-.239.544.774,1.563a6.127,6.127,0,0,1-.021-1.515,1.271,1.271,0,0,0,1.31-1.145l.661.092a1.137,1.137,0,0,0,1.529-.4,3.553,3.553,0,0,1-.877-.192s.617-.739-.449-2.3m-.591-9.563a1.462,1.462,0,0,0,.508-1.837A4.78,4.78,0,0,0,31.9,16.321c-2.071-.774-6.6.158-9.845-.032-1.749-.219-2.435,0-3.828-1.221a2.752,2.752,0,0,1-.349-3.317,2.981,2.981,0,0,1,2.7-1.149c2.62.2,3.331-1.221,5.578-1.656,3.312-.64,3.857.825,3.39.439a5.07,5.07,0,0,0-3.275.39,7.887,7.887,0,0,0-1.827.884,11.6,11.6,0,0,0,2.565.639c2.954.238,3.672-1.062,5.175-.714a6.336,6.336,0,0,0-.82.326,3.538,3.538,0,0,1,2.455.517,1.78,1.78,0,0,1,.254.369c-4.629-1.122-4.155.873-6.6,1.052-1.492.109-3.675-1.18-4.255-1.046,0,0-.148,2.059-1.7,1.588a.869.869,0,0,0-.4-1.551,3.213,3.213,0,0,0-1.622.091,1.538,1.538,0,0,0-.665,2.255c.766,1.109,1.585,1.281,3.634,1.265,0,0,1.232-.852,1.734-.612,0,.124-.226.558-.114.5a3.411,3.411,0,0,1,2.439-.666c-.1.335-.182.448-.233.485a5.929,5.929,0,0,1,2.806-.531l-.2.544c.866-.389,1.727-1.028,2.729-.714l-.192.627a4.723,4.723,0,0,1,2.623.265l-.3.691a2.554,2.554,0,0,1,.786,2.1,1.851,1.851,0,0,1-1.572,1.9,10.291,10.291,0,0,1-5.021.028c-.172-.035-.3-.535-.3-.535,1.875.341,3.66.62,5.392-.158m-3.023-9.063s-1.479.9-4.315.2a10.752,10.752,0,0,1,2.956-.717,2.372,2.372,0,0,1,1.359.517M8.539,14.825c-.621.012-.79-.152-.918-.315L7.5,14.47a5.717,5.717,0,0,0,.624.072l1.328-.024c.375-.006.585.156.629.28l-1.538.027M2.062,10.248c.072-.667.18-.648,1.047-.954a2.473,2.473,0,0,1,1.934.09,3.17,3.17,0,0,0,1.866-.1,1.753,1.753,0,0,1,1.059-.082,3.29,3.29,0,0,0,1.12-.02,1.03,1.03,0,0,1-.737.325c-.458-.069-.722.49-.882.784s-.355.449-1.03.475c-.934.037-.963.745-1.041,1.037s-.412.446-.992.328A5.281,5.281,0,0,1,2.5,11.444a1.582,1.582,0,0,1-.438-1.2m-.554,3.83c.246-.17.578-.094.838.442a.408.408,0,0,1-.2.627l-.838-.4a.612.612,0,0,1,.2-.669m-.433,1.378a8.365,8.365,0,0,0,1.047.564s.347.7-.068.748l-.88-.441c-.506-.406-.346-.7-.1-.871M1.068,17.45c-.337-.261-.133-.5-.133-.5A8.216,8.216,0,0,1,1.9,17.6c.084.123.008.54-.2.462s-.424-.45-.635-.613m.778,6.342c-.115.542-.239.585-.208-.038.013-.282.168-2.663.332-5.192a.633.633,0,0,0,.4-.221s.117.108.447-.066Zm.982-5.573-.337-.253c.039-.126-.215-.641-.215-.641a.568.568,0,0,0,.37-.3,1.349,1.349,0,0,0,.384.05Zm.245-1.384-.311-.266a4.1,4.1,0,0,0-.434-.989.69.69,0,0,1,.411-.3,1.752,1.752,0,0,0,.377.065,1.142,1.142,0,0,0,0,.345,2.306,2.306,0,0,0,.094.35Zm.482-2.73A.791.791,0,0,0,3,14.01a2.546,2.546,0,0,1,.39.6,2.035,2.035,0,0,0-.195.408,3.8,3.8,0,0,0-.267-.337,1.292,1.292,0,0,0-.262-.7,1.229,1.229,0,0,0-.379-.29l.1-1.491a4.731,4.731,0,0,0,1.419.474ZM8.82,23.543a6.321,6.321,0,0,1-.9-1.729,6.663,6.663,0,0,0-.1,1.374c-.94.888-.989.432-1.161.186a1.18,1.18,0,0,1-.094-.7c-1.786.115-1.2-1.723-1.2-1.723-1.575.111-1.146-1.392-1.146-1.392A1.625,1.625,0,0,1,3.976,17.4c.239-.544-.143-.994-.274-1.408s.031-.582.149-.958a2.7,2.7,0,0,1,.636.737c.257.452-.063,1.163-.1,1.456a1.555,1.555,0,0,0,.308.991,12.381,12.381,0,0,0,2.857,1.777,1.908,1.908,0,0,0,.312,1.157c.029.029.4-1.128.555-1.464s1.586-1.9,2.033-2.528.962.44.962.44c.172-1.956-.86-1.688-1.233-1.681a2.732,2.732,0,0,0-.991.392c-.339-.369-.133-.684.031-.935,0,0,1.036-.061,1.326-.067s.333-.047.328-.254a2.917,2.917,0,0,0-.557-.987c-.17-.205-.581-.028-1.248-.1-.958-.108-1.112-1.58-1.112-1.58a1.561,1.561,0,0,0,1.033-.267c.41-.257.607-.842,1.1-1.184a6,6,0,0,1,2.442-.5c.829-.057.985-.641,1.187-1.018a1.41,1.41,0,0,1,.809,1.148.776.776,0,0,1-1.105.892c.1.912,1.049.6,1.049.6.492,2.026-1.418,2.019-1.832,2.109s-.032.541.218.578a2,2,0,0,0,2.266-1.038.521.521,0,0,1,.054.706c.126.039.341.451.341.451a2.335,2.335,0,0,0-.875-.11c-.166.045-.244.3.005.292a1.463,1.463,0,0,1,1.474,1.094,4.734,4.734,0,0,0-1.424-.6c-.292-.119-.33.089-.2.171a4.1,4.1,0,0,1,1.394,1.346c.256.327-.316.919-.316.919a4.158,4.158,0,0,0-1.149-1.517c-.169-.2-.457-.032-.288.089a11.588,11.588,0,0,1,.995,2.267c.349.948-.314,1.085-.314,1.085a4.238,4.238,0,0,0-1.457-2.55c-.3-.284-.331.048-.2.253a5.6,5.6,0,0,1,.961,2.684c.2,1.657-.636,1.589-.636,1.589a3.88,3.88,0,0,0-1.135-3.1c-.211-.245-.371.172-.16.335.373.287.7,1.774.558,3.4s-.891,1.221-1.148.727a5.186,5.186,0,0,1-.449-1.861c.035-.25-.1-.706-.218-.5a4.5,4.5,0,0,0-.123,2.371c.359,1.26-.2.46-.5.133a5.637,5.637,0,0,1-.656-1.816c-.045-.289-.383-.658-.422-.449a4.147,4.147,0,0,0,.287,2.113c1.212,2.492-.193.875-.7.3m16.82,4.208a1.56,1.56,0,0,1-2.011,1.594,12,12,0,0,1,.19,1.366c.006.416.017.957-.913.059-.127-.123-.307.137-.2.335.258.494.35,2.052-.6,1.132-.127-.122-.308-.074-.247.171.448,1.778-.3,2.35-.683,1.258-.088-.247-.171-.2-.335-.077s-1.722,1.193-1.722,1.193c.183.911-.674,1.8-1.261,1.622-.784-.235-1.12-.514-.569-1.671.122-.252-.214-.456-.334-.119-.237.669-1.169,1.418-2.156.246-.552-.655.728-1.218.728-1.218.288-.089.366-.338-.006-.332s-1.331-.018-1.214-.477c.146-.577.822-.555,1.319-.563a4.137,4.137,0,0,1,2.931,1.318,8.069,8.069,0,0,0,1.477-1.107c.447-.505,1.105-.891,1.145-3.259.021-1.122-.989-2.039-1.588-2.921a3.032,3.032,0,0,1-.547-2.96,4.121,4.121,0,0,1,1.411-.15,7.782,7.782,0,0,0,2.778,2.027s-.7,2.629,2.412,2.533M32.384,28.9c.626.114.883.607,1.142,1.1.13.372.06,1.037-.438,1.129-.44.082-.55-.613-.671-.362a8.092,8.092,0,0,0-.233.876,1.084,1.084,0,0,1-1.114.518c-.376-.241-.263-.867-.146-1.242-.747.013-.477,1.131-1.231.769-.128-.123-.381-.367-.261-.618.361-.755,1.547-.9,1.966-1.489.568-.8-.554-3.189-1.2-4.548a8.865,8.865,0,0,1-4.356.244c-2.871-.551-4.51-1.561-5.164-3.335-.47-1.273-2.138-.772-2.138-.772a1.733,1.733,0,0,1,1.642,1.217c.032.12,0,.249-.121.251a2.451,2.451,0,0,1-2.211-.543,4.841,4.841,0,0,1-5.1,3.041c-.247-.034-1.023.932-.732.885a1.481,1.481,0,0,1,1.374.225.98.98,0,0,1,.142.994,1.168,1.168,0,0,1-2.249-.334l-.375.007c.013.747.244,1.989-.753,2.008-.5.008-.349-.991-.849-1.107.01.623-.221,1.665-.969,1.554-.25,0-.385-.533-.39-.906l-.25,0a1.7,1.7,0,0,1-.474,1.378c-.5.259-.63-.362-1.008-.605-.484.756-1.164,2.223-1.919,1.9-.834-.354.06-1.372.424-1.877a.435.435,0,0,0-.13-.247c-.492.258-.745.83-1.235.563-.88-.483-.607-1.486.378-2.167-.253-.245-.424-.409-.3-.66a.774.774,0,0,1,.869-.265A2.1,2.1,0,0,1,5.416,28.3c2.36-.415,4.488-2.156,6.205-3.765,0,0,1.334.226,1.717-1.526,0,0,1.576-.2,1.58-2.272a1.4,1.4,0,0,0,1.011-1.472,1.14,1.14,0,0,1,.037-.29,34.97,34.97,0,0,0,6.885-.579,4.7,4.7,0,0,1,4.021,1.526c.593.7.659,1.79,1.362,2.241a5.341,5.341,0,0,0,4.24.049s.354,1.239-1.225,1.267c-.249.005-.012.348.3.411,1.127.229,1.807,1.172-.233.918,0,0-.306.355.175.5,1.753.509.847.981.476.989-.325.462,1.207.268,1.725,1.34.4.817-1.81,1.029-1.306,1.269"/><path class="cls-1" d="M1.507,14.077c.246-.169.58-.093.838.443a.407.407,0,0,1-.2.626l-.838-.4a.611.611,0,0,1,.2-.668m-.433,1.379a8.259,8.259,0,0,0,1.049.563s.344.7-.07.748l-.881-.44c-.5-.407-.344-.7-.1-.871M1.068,17.45c-.338-.262-.133-.5-.133-.5A8.155,8.155,0,0,1,1.9,17.6c.084.123.01.54-.2.461s-.423-.45-.634-.612"/></svg>